<svg xmlns="http://www.w3.org/2000/svg" viewBox="0 0 720 200" fill="none">
  <style>
    @keyframes sniff { 0%,100% { transform: translateY(0); } 50% { transform: translateY(-4px); } }
    .cat { animation: sniff 2s ease-in-out infinite; }
  </style>
  <rect x="10" y="20" width="700" height="160" rx="24" fill="#1c1017" stroke="#ef4444" stroke-width="1.5" stroke-opacity="0.2"/>
  <!-- Cat mascot -->
  <g class="cat" transform="translate(50, 45)">
    <ellipse cx="50" cy="55" rx="35" ry="30" fill="#e5e7eb"/>
    <polygon points="22,35 30,10 42,30" fill="#e5e7eb"/>
    <polygon points="58,30 70,10 78,35" fill="#e5e7eb"/>
    <polygon points="26,32 32,15 40,30" fill="#fca5a5"/>
    <polygon points="60,30 68,15 74,32" fill="#fca5a5"/>
    <circle cx="38" cy="50" r="5" fill="#fbbf24"/>
    <circle cx="62" cy="50" r="5" fill="#fbbf24"/>
    <circle cx="39" cy="49" r="2.5" fill="#1f2937"/>
    <circle cx="63" cy="49" r="2.5" fill="#1f2937"/>
    <ellipse cx="50" cy="60" rx="4" ry="3" fill="#fca5a5"/>
    <line x1="20" y1="56" x2="38" y2="58" stroke="#6b7280" stroke-width="1"/>
    <line x1="20" y1="62" x2="38" y2="62" stroke="#6b7280" stroke-width="1"/>
    <line x1="62" y1="58" x2="80" y2="56" stroke="#6b7280" stroke-width="1"/>
    <line x1="62" y1="62" x2="80" y2="62" stroke="#6b7280" stroke-width="1"/>
    <ellipse cx="50" cy="90" rx="25" ry="18" fill="#e5e7eb"/>
    <path d="M 75 85 Q 95 70 90 55" stroke="#e5e7eb" stroke-width="6" fill="none" stroke-linecap="round"/>
  </g>
  <text x="180" y="82" font-family="system-ui, -apple-system, sans-serif" font-size="46" font-weight="800" fill="#f9fafb" letter-spacing="-1">sniff</text>
  <text x="180" y="115" font-family="system-ui, -apple-system, sans-serif" font-size="17" fill="#f87171" font-weight="500">AI Powered QA Testing</text>
  <text x="180" y="147" font-family="system-ui, -apple-system, sans-serif" font-size="14" fill="#94a3b8">One command · Five checks · Zero config</text>
</svg>
